<?xml version="1.0" standalone="no"?>
<!DOCTYPE svg PUBLIC "-//W3C//DTD SVG 20010904//EN"
 "http://www.w3.org/TR/2001/REC-SVG-20010904/DTD/svg10.dtd">
<svg version="1.0" xmlns="http://www.w3.org/2000/svg"
 width="1024.000000pt" height="1024.000000pt" viewBox="0 0 1024.000000 1024.000000"
 preserveAspectRatio="xMidYMid meet">
<metadata>
Created by potrace 1.11, written by Peter Selinger 2001-2013
</metadata>
<g transform="translate(0.000000,1024.000000) scale(0.100000,-0.100000)"
fill="#000000" stroke="none">
<path d="M2728 10235 c-2 -1 -30 -6 -63 -9 -33 -4 -67 -9 -75 -11 -8 -2 -26
-6 -40 -9 -14 -3 -40 -9 -57 -15 -18 -5 -33 -7 -33 -4 0 3 -7 -1 -17 -8 -9 -8
-19 -13 -22 -12 -9 4 -75 -15 -118 -34 -21 -9 -43 -17 -49 -19 -5 -1 -56 -26
-112 -55 -310 -163 -557 -419 -705 -729 -43 -91 -101 -250 -112 -308 -6 -30
-12 -65 -20 -102 -27 -133 -27 -430 0 -560 3 -14 8 -38 10 -55 23 -132 128
-392 201 -500 13 -20 24 -39 24 -43 0 -4 11 -19 23 -33 13 -13 26 -30 28 -36
11 -29 174 -204 257 -275 17 -15 55 -44 84 -65 29 -21 55 -41 56 -45 2 -5 9
-8 15 -8 6 0 18 -7 26 -15 20 -17 239 -128 262 -132 9 -1 37 -12 64 -23 33
-14 45 -25 41 -35 -3 -8 -1 -17 3 -20 5 -3 5 -21 1 -40 -4 -19 -4 -35 0 -35 5
0 5 -13 0 -30 -5 -16 -5 -30 -1 -30 4 0 5 -22 1 -50 -4 -27 -3 -50 1 -50 4 0
4 -13 -1 -30 -5 -18 -5 -30 0 -30 6 0 6 -9 1 -22 -11 -29 -11 -39 0 -60 6 -10
5 -19 -1 -23 -6 -4 -7 -12 -1 -22 5 -9 5 -29 1 -45 -5 -15 -5 -28 0 -28 5 0 5
-13 0 -30 -5 -17 -5 -30 0 -30 5 0 5 -13 0 -30 -5 -16 -5 -30 -1 -30 4 0 4
-24 1 -53 -3 -29 -3 -67 1 -85 4 -18 4 -32 0 -32 -7 0 -5 -86 3 -106 3 -8 1
-14 -4 -14 -5 0 -5 -13 0 -30 5 -16 6 -30 2 -30 -4 0 -7 -16 -7 -35 0 -19 3
-35 7 -35 4 0 3 -13 -2 -30 -5 -16 -5 -30 -1 -30 4 0 5 -22 1 -50 -4 -27 -3
-50 1 -50 4 0 4 -13 -1 -30 -5 -18 -5 -30 0 -30 6 0 6 -9 1 -22 -11 -29 -11
-39 0 -60 6 -10 5 -19 -1 -23 -6 -4 -7 -12 -1 -22 5 -9 5 -29 1 -45 -5 -15 -5
-28 0 -28 5 0 5 -13 0 -30 -5 -17 -5 -30 0 -30 5 0 5 -13 0 -30 -5 -16 -5 -30
-1 -30 4 0 4 -24 1 -53 -3 -29 -3 -67 1 -85 4 -18 4 -32 0 -32 -7 0 -5 -86 3
-106 3 -8 1 -14 -4 -14 -5 0 -5 -13 0 -30 5 -16 6 -30 2 -30 -4 0 -7 -16 -7
-35 0 -19 3 -35 7 -35 4 0 3 -13 -2 -30 -5 -16 -5 -30 -1 -30 4 0 5 -23 1 -50
-4 -28 -3 -50 1 -50 4 0 4 -13 -1 -30 -5 -18 -5 -30 0 -30 8 0 2 -29 -10 -50
-2 -3 2 -15 8 -27 8 -14 9 -24 2 -28 -6 -4 -7 -12 -1 -22 5 -9 5 -29 1 -45 -5
-15 -5 -28 0 -28 5 0 5 -13 0 -30 -5 -17 -5 -30 0 -30 5 0 5 -13 0 -30 -5 -16
-5 -30 -1 -30 4 0 4 -24 1 -53 -3 -29 -3 -67 1 -85 4 -18 4 -32 0 -32 -7 0 -5
-86 3 -106 3 -8 1 -14 -4 -14 -5 0 -5 -13 0 -30 5 -16 6 -30 2 -30 -4 0 -7
-16 -7 -35 0 -19 3 -35 7 -35 4 0 3 -13 -2 -30 -5 -16 -5 -30 -1 -30 4 0 5
-23 1 -50 -4 -28 -3 -50 1 -50 4 0 4 -13 -1 -30 -5 -18 -5 -30 0 -30 6 0 6 -9
1 -22 -11 -29 -11 -39 0 -60 6 -10 5 -19 -1 -23 -6 -4 -7 -12 -1 -22 5 -9 5
-29 1 -45 -5 -15 -5 -28 0 -28 5 0 5 -13 0 -30 -5 -17 -5 -30 0 -30 5 0 5 -13
0 -30 -5 -16 -5 -30 -1 -30 4 0 4 -24 1 -53 -3 -29 -3 -67 1 -85 4 -18 4 -32
0 -32 -7 0 -5 -86 3 -106 3 -8 1 -14 -4 -14 -5 0 -5 -13 0 -30 5 -16 5 -30 1
-30 -6 0 -7 -37 -1 -65 4 -18 0 -48 -6 -43 -3 3 -33 -5 -67 -19 -34 -14 -75
-30 -92 -37 -16 -6 -32 -13 -35 -16 -3 -3 -40 -23 -83 -45 -171 -88 -407 -289
-507 -431 -84 -119 -109 -159 -156 -249 -30 -58 -52 -105 -49 -105 3 0 -2 -15
-12 -32 -9 -18 -18 -37 -19 -43 -2 -5 -17 -59 -35 -120 -17 -60 -32 -127 -33
-147 0 -21 -3 -38 -6 -38 -22 0 -18 -423 5 -523 3 -12 7 -33 9 -47 18 -97 65
-237 119 -350 44 -93 133 -243 148 -248 5 -2 9 -10 9 -17 0 -8 6 -18 13 -22 7
-4 20 -19 28 -33 36 -55 281 -290 304 -290 3 0 15 -8 26 -18 10 -11 32 -25 47
-33 15 -8 29 -17 32 -20 9 -11 180 -99 193 -99 7 0 18 -5 24 -11 12 -12 193
-74 241 -83 15 -3 38 -7 52 -10 40 -10 72 -16 115 -23 57 -9 350 -9 415 0 80
10 155 24 155 27 0 1 12 4 28 6 15 3 60 16 100 30 39 14 77 26 82 28 42 12
192 83 228 108 15 11 27 16 27 11 0 -4 4 -3 8 2 4 6 36 30 72 54 177 119 382
334 470 494 60 109 109 207 105 207 -3 0 1 13 10 29 23 45 66 185 81 261 2 14
6 34 9 46 9 40 19 130 19 181 1 29 5 53 9 53 4 0 4 8 -2 17 -5 10 -5 26 -1 39
5 12 6 25 3 28 -3 3 -7 36 -9 73 -3 68 -8 115 -19 175 -3 18 -7 40 -9 48 -1 8
-5 24 -9 35 -3 11 -8 31 -11 45 -16 94 -144 387 -192 441 -8 8 -14 19 -14 22
0 4 -30 47 -67 95 -67 89 -187 213 -257 267 -21 17 -45 36 -52 43 -7 6 -17 12
-22 12 -6 0 -12 4 -14 9 -5 15 -156 105 -253 150 -49 24 -92 45 -94 46 -11 12
101 136 174 192 76 59 292 156 395 178 8 2 35 8 60 14 66 17 80 20 135 31 28
5 59 11 70 14 24 5 170 27 205 31 14 2 50 6 80 9 30 4 66 8 80 11 14 2 59 7
100 11 109 10 140 13 185 18 22 3 69 7 105 11 139 12 187 16 230 21 25 2 70 7
100 10 30 3 66 7 80 9 14 2 50 7 80 10 30 3 71 7 90 10 19 2 56 7 81 10 25 3
56 8 70 11 13 3 40 7 59 9 19 2 73 11 120 19 47 9 99 18 115 21 17 3 36 8 44
10 7 3 48 12 90 21 42 9 80 19 86 22 5 4 19 8 30 10 25 4 36 7 55 15 8 3 62
20 120 39 58 18 107 36 108 41 2 4 11 7 19 7 8 0 37 11 64 25 27 13 49 22 49
20 0 -13 326 174 340 195 3 4 15 12 28 19 27 14 137 108 202 173 92 91 210
235 210 257 0 6 4 11 8 11 8 0 38 51 130 220 16 30 31 60 32 65 3 14 19 57 29
80 19 40 74 225 87 290 2 11 7 34 11 50 3 17 7 41 9 55 1 14 3 25 4 25 3 0 9
38 16 95 3 30 8 64 10 75 2 11 6 74 10 140 3 66 7 125 9 131 2 7 21 18 42 24
57 19 187 80 194 92 3 5 9 9 13 9 17 -3 25 1 46 19 13 11 29 20 36 20 7 0 14
3 16 8 2 4 25 22 51 39 161 106 374 335 463 498 6 11 25 46 43 78 40 73 101
224 93 231 -3 3 1 6 8 6 7 0 11 3 7 6 -3 3 -1 18 5 33 5 14 12 34 14 44 12 50
15 65 20 97 3 19 8 44 12 55 10 33 12 62 16 258 2 103 0 190 -5 192 -4 3 -6
16 -4 30 1 14 -2 28 -7 31 -4 3 -6 9 -3 14 7 11 -36 188 -67 275 -30 85 -109
255 -119 255 -5 0 -9 6 -9 13 0 12 -74 124 -130 197 -32 41 -196 206 -241 243
-195 157 -485 293 -684 322 -11 2 -20 4 -20 5 0 8 -213 30 -300 31 -36 1 -204
-12 -225 -16 -14 -3 -41 -7 -60 -10 -19 -2 -71 -14 -115 -26 -44 -12 -86 -22
-92 -22 -7 0 -13 -3 -13 -7 0 -4 -6 -7 -12 -8 -24 -2 -43 -8 -74 -25 -17 -9
-33 -15 -35 -13 -8 8 -224 -113 -311 -174 -89 -63 -257 -221 -308 -288 -14
-19 -34 -46 -46 -60 -59 -76 -205 -332 -189 -332 3 0 -1 -13 -10 -30 -8 -16
-16 -33 -16 -37 -1 -5 -6 -19 -11 -33 -42 -107 -80 -301 -82 -417 -1 -29 -4
-53 -8 -53 -4 0 -4 -11 1 -23 5 -13 5 -30 1 -37 -5 -8 -6 -18 -3 -24 4 -5 7
-34 8 -65 3 -77 13 -161 24 -198 5 -17 7 -34 4 -36 -2 -3 0 -14 5 -24 6 -10
12 -31 15 -48 6 -34 37 -129 62 -190 39 -98 136 -280 159 -300 6 -5 29 -37 51
-70 42 -62 226 -252 273 -282 15 -10 31 -23 35 -30 4 -7 14 -13 22 -13 7 0 15
-4 17 -9 9 -26 280 -172 373 -201 22 -7 46 -18 54 -24 8 -6 16 -10 18 -8 1 1
10 2 18 2 13 0 14 -12 9 -77 -13 -181 -31 -279 -76 -408 -65 -190 -164 -318
-334 -431 -94 -62 -245 -133 -314 -149 -8 -2 -28 -9 -45 -15 -16 -6 -37 -13
-45 -15 -8 -2 -35 -8 -60 -15 -47 -13 -68 -18 -110 -26 -129 -26 -171 -34
-207 -39 -23 -3 -57 -8 -75 -11 -18 -3 -48 -7 -67 -9 -19 -2 -48 -6 -65 -9
-34 -5 -116 -15 -186 -21 -25 -2 -67 -7 -95 -10 -27 -3 -77 -8 -110 -10 -33
-2 -60 -5 -60 -5 0 -2 -29 -5 -135 -14 -47 -4 -101 -9 -120 -11 -19 -3 -60 -7
-91 -9 -84 -8 -150 -15 -189 -21 -19 -3 -51 -7 -70 -9 -76 -9 -239 -32 -280
-41 -14 -3 -41 -8 -60 -11 -19 -3 -42 -7 -50 -9 -8 -2 -30 -7 -47 -10 -155
-26 -450 -117 -600 -186 -52 -24 -57 -24 -50 1 3 11 1 20 -5 20 -5 0 -7 4 -3
10 8 13 10 138 2 146 -3 3 -2 16 3 28 4 13 4 29 0 36 -5 8 -5 19 0 25 5 6 5
17 1 24 -5 8 -5 27 -1 42 5 16 5 29 0 29 -5 0 -5 13 0 30 5 17 5 30 0 30 -5 0
-5 13 0 30 5 17 5 30 1 30 -4 0 -4 24 -1 53 3 29 3 67 -1 85 -4 18 -4 32 0 32
7 0 5 86 -3 106 -3 8 -1 14 4 14 5 0 5 13 0 30 -5 17 -6 30 -2 30 4 0 7 16 7
35 0 19 -3 35 -7 35 -4 0 -3 14 2 30 5 17 5 30 1 30 -4 0 -5 23 -1 50 4 28 3
50 -1 50 -4 0 -4 14 1 30 5 18 5 30 0 30 -6 0 -5 12 1 28 11 29 11 29 -2 54
-6 10 -5 19 1 23 6 4 7 12 1 22 -5 9 -5 29 -1 45 5 15 5 28 0 28 -5 0 -5 13 0
30 5 17 5 30 0 30 -5 0 -5 13 0 30 5 17 5 30 1 30 -4 0 -4 27 -1 60 3 33 3 60
-1 60 -4 0 -4 14 1 30 5 19 5 30 -1 30 -6 0 -8 4 -4 10 3 5 6 40 5 77 0 124 1
157 6 165 3 4 1 8 -5 8 -6 0 -6 11 -1 30 5 19 5 30 -1 30 -6 0 -8 4 -4 10 5 7
7 90 4 150 0 8 0 41 1 72 1 31 -1 61 -5 67 -3 6 -3 11 2 11 9 0 8 83 -1 106
-3 8 -1 14 4 14 5 0 5 13 0 30 -5 17 -6 30 -2 30 4 0 7 16 7 35 0 19 -3 35 -7
35 -4 0 -3 14 2 30 5 17 5 30 1 30 -4 0 -5 23 -1 50 4 28 3 50 -1 50 -4 0 -4
14 1 30 5 18 5 30 0 30 -6 0 -6 9 -1 23 5 12 5 32 0 45 -5 12 -5 22 0 22 5 0
7 9 4 20 -4 15 2 23 23 31 16 7 32 13 36 13 3 1 10 4 14 9 4 4 14 7 21 7 47 0
342 171 443 257 208 176 342 360 470 648 18 38 66 202 75 250 2 17 7 41 10 55
7 37 15 99 19 151 2 26 7 52 10 58 4 6 4 11 -1 11 -4 0 -8 16 -8 35 0 19 4 35
8 35 5 0 5 5 1 12 -4 6 -8 43 -10 82 -2 69 -8 125 -19 176 -3 14 -8 39 -10 55
-36 207 -179 502 -331 685 -71 85 -216 219 -303 279 -47 34 -91 64 -96 68 -25
19 -158 85 -236 117 -80 33 -242 80 -314 92 -16 2 -46 7 -65 10 -38 6 -366 14
-372 9z m257 -1294 c125 -42 205 -153 210 -289 2 -43 0 -81 -3 -87 -4 -5 -8
-18 -9 -28 -3 -20 -25 -57 -66 -108 -28 -36 -114 -91 -152 -97 -50 -8 -152 -8
-175 1 -70 27 -93 41 -132 80 -66 66 -92 127 -92 217 1 87 4 102 28 152 21 44
86 118 103 118 6 0 13 4 15 10 2 5 27 18 57 29 62 22 154 22 216 2z m4511
-1292 c57 -28 127 -96 148 -142 24 -55 28 -70 32 -132 7 -111 -49 -219 -144
-282 -44 -29 -122 -58 -122 -46 0 3 -6 0 -13 -6 -8 -6 -17 -8 -20 -5 -3 4 -29
8 -56 10 -53 4 -128 36 -173 76 -32 27 -78 94 -78 111 0 7 -5 18 -12 25 -8 8
-12 44 -12 100 0 71 4 96 24 136 42 86 127 156 215 176 60 14 161 3 211 -21z
m-4482 -5759 c110 -52 177 -155 181 -279 2 -42 0 -80 -3 -86 -4 -5 -8 -18 -9
-27 -5 -30 -61 -112 -95 -139 -35 -28 -93 -60 -118 -67 -8 -2 -41 -5 -72 -7
-97 -6 -169 20 -238 87 -68 66 -94 127 -94 218 1 88 4 102 29 155 35 71 133
151 199 162 11 2 22 5 24 8 13 13 152 -5 196 -25z"/>
</g>
</svg>
