<svg width="48" height="48" xmlns="http://www.w3.org/2000/svg"><g fill="none" fill-rule="evenodd"><path d="M141.462 103.726H23.403v-42.32h118.06v42.32z" fill="#44B1C8"/><text font-family="Helvetica" font-size="12" font-weight="bold" fill="#FFF"><tspan x="49.268" y="92.334">REST</tspan></text><path d="M24.868 77.88c.456-5.767 1.821-11.29 3.881-16.474H2.02A82.526 82.526 0 000 71.72l11.394 5.934a72.17 72.17 0 00-.186 4.912c0 1.655.075 3.29.186 4.914L0 93.414a82.705 82.705 0 002.017 10.314h26.68c-3.118-7.915-4.554-16.675-3.83-25.848" fill="#44B1C8"/><path d="M134.103 108.228c-8.838 17.646-26.464 30.285-46.983 31.905-24.633 1.941-46.329-11.59-56.425-31.905h-14.66c.797 2.067 1.655 4.107 2.635 6.077l-8.25 9.834a83.21 83.21 0 006.052 9.047l12.257-3.863a71.637 71.637 0 006.949 6.949l-3.866 12.254a83.143 83.143 0 009.05 6.054l9.834-8.252a70.578 70.578 0 009.095 3.767L60.91 162.9a83.044 83.044 0 0010.677 2.1l5.933-11.396c1.625.11 3.26.188 4.915.188 1.652 0 3.287-.077 4.912-.188L93.28 165a83.044 83.044 0 0010.677-2.1l1.122-12.805a70.875 70.875 0 009.094-3.767l9.832 8.252a82.9 82.9 0 009.05-6.054l-3.864-12.254a71.895 71.895 0 006.947-6.95l12.256 3.864a83.21 83.21 0 006.052-9.047l-8.25-9.834c.981-1.97 1.839-4.01 2.636-6.077h-14.729z" fill="#008BA6"/><path d="M140 87.252c-.456 5.768-1.822 11.29-3.884 16.475h26.734a82.527 82.527 0 002.017-10.315l-11.396-5.933c.113-1.625.188-3.26.188-4.912 0-1.655-.075-3.29-.188-4.915l11.396-5.933a82.577 82.577 0 00-2.017-10.312h-26.681c3.119 7.912 4.555 16.673 3.83 25.845" fill="#44B1C8"/><path d="M77.748 25c24.633-1.941 46.329 11.59 56.425 31.905h14.66c-.797-2.07-1.655-4.107-2.638-6.076l8.252-9.835a83.488 83.488 0 00-6.051-9.049l-12.26 3.866a71.33 71.33 0 00-6.946-6.95l3.866-12.256a83.488 83.488 0 00-9.05-6.051l-9.834 8.25a71.074 71.074 0 00-9.095-3.766l-1.119-12.805a82.7 82.7 0 00-10.677-2.1l-5.933 11.394a72.182 72.182 0 00-4.915-.186 72.17 72.17 0 00-4.912.186L71.588.133a82.617 82.617 0 00-10.677 2.1L59.79 15.038a71.074 71.074 0 00-9.094 3.765l-9.832-8.25a83 83 0 00-9.05 6.052l3.864 12.256a71.33 71.33 0 00-6.947 6.95l-12.257-3.866a83.488 83.488 0 00-6.051 9.05l8.25 9.834c-.984 1.97-1.839 4.006-2.639 6.076h14.732c8.838-17.646 26.464-30.287 46.983-31.904" fill="#008BA6"/></g></svg>